
        <svg xmlns="http://www.w3.org/2000/svg" xmlns:xlink="http://www.w3.org/1999/xlink" version="1.1" width="3187.5" height="1125" viewBox="0 0 3187.5 1125">
			
			<g transform="scale(9.375) translate(10, 10)">
				<defs id="SvgjsDefs5140"><linearGradient id="SvgjsLinearGradient5147"><stop id="SvgjsStop5148" stop-color="#8f5e25" offset="0"/><stop id="SvgjsStop5149" stop-color="#fbf4a1" offset="0.5"/><stop id="SvgjsStop5150" stop-color="#8f5e25" offset="1"/></linearGradient><linearGradient id="SvgjsLinearGradient5151"><stop id="SvgjsStop5152" stop-color="#8f5e25" offset="0"/><stop id="SvgjsStop5153" stop-color="#fbf4a1" offset="0.5"/><stop id="SvgjsStop5154" stop-color="#8f5e25" offset="1"/></linearGradient><linearGradient id="SvgjsLinearGradient5155"><stop id="SvgjsStop5156" stop-color="#8f5e25" offset="0"/><stop id="SvgjsStop5157" stop-color="#fbf4a1" offset="0.5"/><stop id="SvgjsStop5158" stop-color="#8f5e25" offset="1"/></linearGradient></defs><g id="SvgjsG5141" featureKey="4K7G0D-0" transform="matrix(0.14245014245014245,0,0,0.14245014245014245,0.14245014245014245,0.14245014245014245)" fill="#000"><g xmlns="http://www.w3.org/2000/svg"><title>background</title><rect x="-1" y="-1" width="702" height="702" style="fill: none;"/></g><g xmlns="http://www.w3.org/2000/svg"><title>Layer 1</title><g><path d="M638.8,206.6v293.8l-108.3,0.3l-160.3-0.1V206.8l268.2-0.3 M364.6,195.3c-3.6,0.5-5.5,2.4-5.6,5.7v304.9    c0.3,3.9,2.3,5.9,5.9,6l279.8,0c1.6-0.1,3-0.7,4.1-2c1.1-1.5,1.5-2.8,1.4-4V201.1c-0.1-3.3-1.9-5.3-5.6-5.8l-279.8,0"/></g><g><path d="M620.3,529.4L365.9,676.3l-54.4-93.6l-80.1-138.8l254.4-146.9L620.1,529 M493,286.3c-2.3-2.9-4.9-3.6-7.8-2    L221.2,436.7c-3.2,2.2-4,4.9-2.3,8.1l139.9,242.3c0.9,1.3,2.1,2.2,3.7,2.5c1.8,0.2,3.2-0.1,4.1-0.8l264.1-152.5    c2.8-1.7,3.6-4.3,2.3-7.7L493.1,286.4"/></g><g><path d="M331.6,674.8L77.1,527.9l53.9-94l80.2-138.8l254.4,146.9L331.8,674.4 M478.4,443c1.4-3.4,0.7-6-2.1-7.7    L212.2,282.8c-3.5-1.7-6.3-1-8.2,2.1L64.2,527.2c-0.7,1.4-0.9,2.9-0.3,4.5c0.8,1.7,1.7,2.7,2.8,3.2l264.1,152.5    c2.9,1.6,5.5,1,7.8-1.9l139.9-242.3"/></g><g><path d="M61.2,497.4V203.7l108.3-0.3l160.3,0.1v293.8l-268.2,0.3 M335.4,508.7c3.6-0.5,5.5-2.4,5.6-5.7V198.1    c-0.3-3.9-2.3-5.9-5.9-6l-279.8,0c-1.6,0.1-3,0.7-4.1,2c-1.1,1.5-1.5,2.8-1.4,4v304.9c0.1,3.3,1.9,5.3,5.6,5.8l279.8,0"/></g><g><path d="M368.4,29.2l254.4,146.9L569,270l-80.2,138.8L234.4,261.9L368.2,29.6 M221.6,261c-1.4,3.4-0.7,6,2.1,7.7    l264.1,152.5c3.5,1.7,6.3,1,8.2-2.1l139.9-242.3c0.7-1.4,0.9-2.9,0.3-4.5c-0.8-1.7-1.7-2.7-2.8-3.2L369.4,16.7    c-2.9-1.6-5.5-1-7.8,1.9L221.7,260.9"/></g><g><path d="M79.7,174.6L334.1,27.7l54.4,93.6l80.1,138.8L214.2,407.1L79.9,175 M207,417.7c2.3,2.9,4.9,3.6,7.8,2    l264.1-152.5c3.2-2.2,4-4.9,2.3-8.1L341.2,16.9c-0.9-1.3-2.1-2.2-3.7-2.5c-1.8-0.2-3.2,0.1-4.1,0.8L69.3,167.6    c-2.8,1.7-3.6,4.3-2.3,7.7l139.9,242.3"/></g></g></g><g id="SvgjsG5142" featureKey="wPuqcM-0" transform="matrix(2.2346368715083798,0,0,2.2346368715083798,117.67597773887591,10.905027634604684)" fill="#000"><path d="M6.78 9.42 c2.38 0 5.14 1.78 5.14 5.36 c0 3.7 -2.76 5.42 -5.14 5.42 c-1.8 0 -2.82 -1.06 -2.88 -1.48 l0 1.28 l-2.86 0 l0 -10.4 l0 -3.74 l2.86 0 l0 4.9 c0.06 -0.22 1.08 -1.34 2.88 -1.34 z M6.38 17.66 c1.44 0 2.76 -0.98 2.76 -2.88 c0 -1.84 -1.32 -2.82 -2.76 -2.82 c-1.4 0 -2.62 0.96 -2.62 2.82 c0 1.92 1.22 2.88 2.62 2.88 z M16.52 5.859999999999999 l0 2.44 l-2.86 0 l0 -2.44 l2.86 0 z M16.52 9.6 l0 10.4 l-2.86 0 l0 -10.4 l2.86 0 z M23.340000000000003 17.6 c0.54 0 0.94 -0.06 1.38 -0.22 l0 2.4 c-0.44 0.2 -1.12 0.34 -2.12 0.34 c-1.62 0 -2.98 -0.56 -2.98 -3.5 l0 -4.66 l-1.46 0 l0 -2.36 l1.46 0 l0 -2.44 l2.86 0 l0 2.44 l2.22 0 l0 2.36 l-2.22 0 l0 4.64 c0 0.48 0.14 1 0.86 1 z M41.040000000000006 9.56 l2.84 0 l-3.76 10.44 l-2.74 0 l-2.48 -6.96 l-2.5 6.96 l-2.74 0 l-3.76 -10.44 l2.86 0 l2.32 7 l2.56 -7 l2.5 0 l2.58 7 z M53.1 9.6 l2.86 0 l0 10.4 l-2.86 0 l0 -1.28 c-0.06 0.42 -1.08 1.48 -2.88 1.48 c-2.38 0 -5.14 -1.72 -5.14 -5.42 c0 -3.58 2.76 -5.36 5.14 -5.36 c1.8 0 2.82 1.12 2.88 1.34 l0 -1.16 z M50.620000000000005 17.66 c1.4 0 2.62 -0.96 2.62 -2.88 c0 -1.86 -1.22 -2.82 -2.62 -2.82 c-1.44 0 -2.76 0.98 -2.76 2.82 c0 1.9 1.32 2.88 2.76 2.88 z M69.32 9.56 l-4.66 10.44 l-2.5 0 l-4.66 -10.44 l2.86 0 l3.04 7 l3.06 -7 l2.86 0 z M75.97999999999999 9.42 c2.36 0 5.62 1.78 5 6.38 l-7.56 0 c0.36 1.3 1.44 1.98 2.84 1.98 c1.3 0 1.8 -0.3 2.54 -0.7 l1.58 1.54 c-0.9 0.94 -2.18 1.58 -4.22 1.58 c-2.6 0 -5.64 -1.78 -5.64 -5.36 c0 -3.64 3.1 -5.42 5.46 -5.42 z M75.97999999999999 11.86 c-1.04 0 -2.14 0.64 -2.52 1.92 l5 0 c-0.32 -1.28 -1.46 -1.92 -2.48 -1.92 z M87.77999999999999 12.719999999999999 c-0.32 -0.74 -0.78 -1.02 -1.34 -1.02 c-0.52 0 -1 0.32 -1 0.78 c0 0.44 0.28 0.72 0.84 0.92 l1.26 0.46 c1.52 0.54 3 1.1 3 3.12 c0 2.08 -2.06 3.26 -4.16 3.26 c-1.9 0 -3.7 -1.12 -4.12 -2.94 l2.26 -0.7 c0.26 0.7 0.82 1.36 1.86 1.36 c0.74 0 1.3 -0.48 1.3 -1 c0 -0.34 -0.24 -0.64 -0.86 -0.88 l-1.2 -0.42 c-2.04 -0.74 -2.98 -1.8 -2.98 -3.22 c0 -1.88 1.74 -3.02 3.68 -3.02 c1.96 0 3.26 1.06 3.86 2.68 z"/></g><g id="SvgjsG5143" featureKey="Li3fkV-0" transform="matrix(0.7705792770866174,0,0,0.7705792770866174,118.50507615835906,61.777225546867705)" fill="#000"><path d="M6.38 18.8 q1.7 0 2.6 -0.73 t0.9 -1.99 q0 -1.36 -0.93 -2.14 t-2.43 -0.78 l-3.26 0 l0 5.64 l3.12 0 z M6.08 11.96 q1.44 0 2.31 -0.62 t0.87 -1.76 q0 -2.48 -3 -2.54 l-3 0 l0 4.92 l2.82 0 z M6.12 5.84 q2.22 0 3.33 0.9 t1.13 2.84 q0 1.12 -0.66 1.91 t-1.88 1.03 l0 0.04 q1.38 0.08 2.26 1.04 t0.9 2.44 q0 1.88 -1.25 2.91 t-3.45 1.05 l-4.56 0 l0 -14.16 l4.18 0 z M29.491999999999997 5.84 l0 14.16 l-1.32 0 l0 -14.16 l1.32 0 z M56.304 5.84 l0 1.2 l-4.84 0 l0 12.96 l-1.32 0 l0 -12.96 l-4.84 0 l0 -1.2 l11 0 z M80.776 5.84 l0 1.2 l-7.34 0 l0 5.04 l6.88 0 l0 1.2 l-6.88 0 l0 5.52 l7.66 0 l0 1.2 l-8.98 0 l0 -14.16 l8.66 0 z M101.56800000000001 18.8 q3.04 0 4.8 -1.54 t1.78 -4.24 q0 -2.88 -1.75 -4.42 t-4.89 -1.56 l-2.76 0 l0 11.76 l2.82 0 z M101.84800000000001 5.84 q3.56 0 5.57 1.92 t2.05 5.26 q0 1.96 -0.89 3.55 t-2.56 2.51 t-4.09 0.92 l-4.5 0 l0 -14.16 l4.42 0 z M127.38000000000001 5.84 l0 14.16 l-1.32 0 l0 -14.16 l1.32 0 z M154.192 5.84 l0 1.2 l-4.84 0 l0 12.96 l-1.32 0 l0 -12.96 l-4.84 0 l0 -1.2 l11 0 z M170.404 12.92 q0 2.7 1.66 4.45 t4.34 1.79 q2.7 0 4.34 -1.77 t1.66 -4.47 q0 -2.74 -1.64 -4.47 t-4.38 -1.77 q-2.68 0 -4.32 1.76 t-1.66 4.48 z M176.404 5.48 q2.16 0 3.82 0.95 t2.57 2.66 t0.93 3.83 q0 3.26 -2.06 5.33 t-5.26 2.11 q-3.22 0 -5.24 -2.09 t-2.08 -5.35 q0.02 -3.26 2.04 -5.32 t5.28 -2.12 z M204.536 12.08 q1.54 0 2.38 -0.69 t0.84 -1.83 t-0.82 -1.82 t-2.44 -0.7 l-2.86 0 l0 5.04 l2.9 0 z M204.136 5.84 q4.9 0 4.94 3.72 q0 3.14 -3.62 3.64 l4.12 6.8 l-1.5 0 l-3.98 -6.72 l-2.46 0 l0 6.72 l-1.32 0 l0 -14.16 l3.82 0 z"/></g>
			</g>
		</svg>
	